:SAMPLES-PER-SECOND 30
:FRAME-RANGE 1-668
:FULLY-SPECIFIED
:DEGREES
84
root  4.82552 39.438 28.4354 -172.886 1.95483 -178.829
RightUpLeg  -10.8202 -4.6245 -7.55848
RightLeg  13.9586 0.995006 -0.169967
RightFoot  -8.48838 -0.330711 10.9245
RightToes  5.38607e-012 1.2921e-014 -6.02303e-014
Spine  -7.34704 -2.61058 -0.161582
Spine1  11.644 -2.59153 -0.690111
HEad  13.3421 -26.621 1.06968
LeftShoulder1  1.21966 -1.51452 -19.0231
LeftArm  -7.17594 0.234579 -23.2676
LeftForeArm  15.8716 2.98249 -10.0051
LeftHand  -0.0455278 3.24177 1.65338
RightShoulder  2.16041 4.17783 22.716
RightArm  -20.7473 24.2816 27.3385
RightForeArm  69.1566 1.02579 7.26938
RightHand  -0.280664 -4.58366 -40.1742
LeftUpLeg  -14.1846 -1.6418 9.79689
LeftLeg  15.7688 9.31908 4.1538
LeftFoot  -5.72218 0.510787 -9.69381
LeftToes  -6.11857e-011 5.00151e-011 -2.22593e-011
85
root  4.10848 39.4078 28.4306 -172.913 1.26128 -179.797
RightUpLeg  -10.7917 -3.46027 -9.72027
RightLeg  14.1975 -0.812944 -0.797686
RightFoot  -8.21417 -0.399939 12.5503
RightToes  5.38607e-012 1.2921e-014 -6.02303e-014
Spine  -7.20307 -2.64848 -1.48682
Spine1  11.631 -2.58301 -0.661379
HEad  13.291 -27.8728 1.08163
LeftShoulder1  1.19739 -1.59973 -18.0588
LeftArm  -6.91824 -0.4909 -21.5553
LeftForeArm  13.8137 4.17442 -10.122
LeftHand  -0.0480331 3.56752 1.92279
RightShoulder  2.24007 4.34604 23.1516
RightArm  -23.9948 24.9353 27.4173
RightForeArm  67.3058 -1.10118 5.42363
RightHand  -0.276321 -4.61606 -41.286
LeftUpLeg  -14.7455 -0.854381 7.58084
LeftLeg  16.4084 7.90858 3.72826
LeftFoot  -6.31994 0.430281 -8.93774
LeftToes  -6.11857e-011 5.00151e-011 -2.22593e-011
86
root  3.42335 39.3747 28.4218 -172.874 0.699036 179.679
RightUpLeg  -10.931 -1.65368 -11.3379
RightLeg  14.6551 -3.3336 -1.52065
RightFoot  -7.69018 -0.496912 13.8782
RightToes  5.38607e-012 1.2921e-014 -6.02303e-014
Spine  -7.1629 -2.46329 -1.8768
Spine1  11.6209 -2.28024 -1.06557
HEad  13.3355 -29.5252 1.08698
LeftShoulder1  1.24859 -2.10021 -16.636
LeftArm  -7.51111 -0.911199 -19.6836
LeftForeArm  12.6542 5.11307 -9.89073
LeftHand  -0.049796 3.77429 2.23724
RightShoulder  2.25695 4.41177 23.1204
RightArm  -26.0212 25.1242 26.8788
RightForeArm  65.6362 -2.56651 4.24474
RightHand  -0.393588 -4.31947 -42.0199
LeftUpLeg  -15.2865 -0.68043 5.912
LeftLeg  17.1329 7.18678 3.53779
LeftFoot  -7.01828 0.34295 -7.96456
LeftToes  -6.11857e-011 5.00151e-011 -2.22593e-011
87
root  2.78486 39.4189 28.403 -172.972 0.166229 179.684
RightUpLeg  -11.1428 -0.295924 -11.8652
RightLeg  15.6295 -7.53063 -2.76037
RightFoot  -6.43984 -0.668309 14.5132
RightToes  5.38607e-012 1.2921e-014 -6.02303e-014
Spine  -6.96394 -2.27806 -1.83558
Spine1  11.5848 -2.10148 -1.07609
HEad  13.3086 -31.0631 1.03716
LeftShoulder1  1.16801 -1.9197 -15.8239
LeftArm  -8.07808 -2.26198 -16.6927
LeftForeArm  11.3078 5.64538 -9.7319
LeftHand  -0.054864 4.05508 3.08754
RightShoulder  2.17364 4.10776 23.1944
RightArm  -27.1997 26.0517 25.904
RightForeArm  64.8691 -4.35499 3.47964
RightHand  -0.582396 -3.8413 -42.5544
LeftUpLeg  -15.3804 -0.695193 4.8603
LeftLeg  17.3391 6.78769 3.36941
LeftFoot  -7.22775 0.294647 -6.99366
LeftToes  -6.11857e-011 5.00151e-011 -2.22593e-011
88
root  2.21435 39.5083 28.3722 -172.975 -0.389359 -179.959
RightUpLeg  -11.5878 -2.82111 -11.138
RightLeg  16.863 -10.898 -3.92511
RightFoot  -5.24125 -0.718558 12.7636
RightToes  5.38607e-012 1.2921e-014 -6.02303e-014
Spine  -6.89661 -2.22219 -1.54197
Spine1  11.5993 -2.08988 -0.949829
HEad  13.3 -32.2898 0.976642
LeftShoulder1  1.13426 -2.00314 -14.7439
LeftArm  -9.28707 -2.40703 -13.9183
LeftForeArm  9.11409 5.00773 -9.18318
LeftHand  -0.0571587 4.39407 4.34169
RightShoulder  2.20453 4.24559 23.0634
RightArm  -28.7505 26.5966 25.3413
RightForeArm  64.2515 -5.35772 2.54025
RightHand  -0.608783 -3.78372 -42.8387
LeftUpLeg  -15.348 -0.776822 4.30294
LeftLeg  17.1357 6.52054 3.20369
LeftFoot  -7.12188 0.266458 -6.07152
LeftToes  -6.11857e-011 5.00151e-011 -2.22593e-011
89
root  1.73879 39.5935 28.3394 -173.001 -0.817291 -179.473
RightUpLeg  -12.0476 -6.26649 -9.75699
RightLeg  17.864 -12.3756 -4.62176
RightFoot  -5.29928 -0.529084 9.31997
RightToes  5.38607e-012 1.2921e-014 -6.02303e-014
Spine  -6.69664 -2.13916 -1.45208
Spine1  11.4023 -2.11401 -0.553695
HEad  13.5474 -33.3785 0.820634
LeftShoulder1  1.12546 -2.18431 -13.7939
LeftArm  -10.9061 -2.25458 -11.3491
LeftForeArm  7.69553 3.95297 -8.45106
LeftHand  -0.0617633 4.49909 5.53183
RightShoulder  2.22075 4.30227 23.0599
RightArm  -30.7493 27.3029 25.0783
RightForeArm  63.5021 -5.20047 1.44886
RightHand  -0.648727 -3.67419 -42.6894
LeftUpLeg  -15.2036 -0.856585 4.01527
LeftLeg  16.8449 6.34917 3.12586
LeftFoot  -7.0562 0.238378 -5.23918
LeftToes  -6.11857e-011 5.00151e-011 -2.22593e-011
90
root  1.38199 39.6119 28.3188 -173.01 -0.959534 -179.011
RightUpLeg  -12.3357 -8.12772 -8.30119
RightLeg  17.9965 -10.0119 -3.81759
RightFoot  -7.25194 -0.383752 9.34394
RightToes  5.38607e-012 1.2921e-014 -6.02303e-014
Spine  -6.46246 -2.03483 -1.64732
Spine1  11.1952 -2.08297 -0.27988
HEad  13.9257 -34.2274 0.651429
LeftShoulder1  1.07591 -2.18443 -12.7985
LeftArm  -12.7011 -2.33629 -9.42417
LeftForeArm  7.96773 3.0345 -7.7069
LeftHand  -0.0732062 4.38088 6.34924
RightShoulder  2.25267 4.39946 23.1108
RightArm  -31.932 27.8085 24.9711
RightForeArm  61.8208 -5.14679 0.784783
RightHand  -0.726709 -3.45237 -42.2833
LeftUpLeg  -15.3896 -1.10887 3.91719
LeftLeg  17.2688 6.49715 3.25628
LeftFoot  -7.27295 0.216588 -4.86887
LeftToes  -6.11857e-011 5.00151e-011 -2.22593e-011
91
root  1.09519 39.5995 28.2942 -173.085 -0.821777 -178.672
RightUpLeg  -12.5908 -7.70727 -7.08731
RightLeg  17.7504 -5.55981 -2.19479
RightFoot  -9.71484 -0.206682 9.87464
RightToes  5.38607e-012 1.2921e-014 -6.02303e-014
Spine  -6.09022 -1.80735 -1.76963
Spine1  10.9748 -1.83214 -0.33987
HEad  14.208 -35.3482 0.817783
LeftShoulder1  1.02154 -2.16788 -11.7651
LeftArm  -13.8634 -2.65327 -8.24322
LeftForeArm  8.48213 2.09869 -7.3124
LeftHand  -0.074527 4.47902 7.25044
RightShoulder  2.30399 4.56829 23.1405
RightArm  -32.9054 27.8095 25.2675
RightForeArm  60.7064 -5.07377 0.13252
RightHand  -0.674317 -3.58738 -42.2275
LeftUpLeg  -15.5848 -1.2196 3.82813
LeftLeg  17.9794 6.71661 3.37836
LeftFoot  -7.67753 0.200604 -4.67375
LeftToes  -6.11857e-011 5.00151e-011 -2.22593e-011
92
root  0.870803 39.5552 28.2703 -173.032 -0.673676 -178.501
RightUpLeg  -13.0119 -5.59821 -6.16331
RightLeg  17.3986 -0.860041 -0.507301
RightFoot  -12.7131 0.0496013 11.3422
RightToes  5.38607e-012 1.2921e-014 -6.02303e-014
Spine  -5.88398 -1.632 -2.05884
Spine1  10.8016 -1.63136 -0.380507
HEad  14.7034 -36.5088 0.704866
LeftShoulder1  1.04441 -2.43633 -11.2401
LeftArm  -14.1797 -2.73585 -7.45442
LeftForeArm  8.77118 1.11154 -7.26116
LeftHand  -0.0764491 4.53713 8.0752
RightShoulder  2.32778 4.58762 23.3847
RightArm  -33.4561 27.923 25.5645
RightForeArm  60.1396 -5.02343 -0.27345
RightHand  -0.612397 -3.76889 -42.6993
LeftUpLeg  -16.0124 -1.33143 3.65148
LeftLeg  18.8831 7.0139 3.57495
LeftFoot  -8.08642 0.170593 -4.29677
LeftToes  -6.11857e-011 5.00151e-011 -2.22593e-011
93
root  0.656942 39.5197 28.2287 -172.996 -0.784088 -178.55
RightUpLeg  -13.005 -3.8234 -5.69281
RightLeg  16.2614 3.23111 0.862523
RightFoot  -14.6457 0.306162 14.0118
RightToes  5.38607e-012 1.2921e-014 -6.02303e-014
Spine  -5.79774 -1.66066 -2.31628
Spine1  10.7203 -1.64414 -0.400828
HEad  15.3032 -37.3478 0.169025
LeftShoulder1  1.06915 -2.59795 -11.153
LeftArm  -14.0745 -3.0408 -7.1126
LeftForeArm  9.64778 0.449883 -7.40606
LeftHand  -0.0810523 4.50501 8.44845
RightShoulder  2.36863 4.74158 23.3274
RightArm  -34.0609 27.5216 26.3289
RightForeArm  60.0337 -4.93833 -0.789649
RightHand  -0.698144 -3.59277 -43.7497
LeftUpLeg  -16.247 -1.50565 3.2438
LeftLeg  19.4069 7.03631 3.66369
LeftFoot  -8.45655 0.1562 -4.18885
LeftToes  -6.11857e-011 5.00151e-011 -2.22593e-011
94
root  0.437777 39.5391 28.1596 -173.022 -1.10655 -178.603
RightUpLeg  -12.9695 -1.93597 -5.37431
RightLeg  15.3615 4.93369 1.31685
RightFoot  -14.2358 0.254695 13.8607
RightToes  5.38607e-012 1.2921e-014 -6.02303e-014
Spine  -5.96211 -1.77723 -2.13763
Spine1  10.8658 -1.78251 -0.321464
HEad  15.77 -37.7499 -0.609769
LeftShoulder1  1.08878 -2.64264 -11.3685
LeftArm  -13.5624 -3.3111 -7.17626
LeftForeArm  10.3768 -0.520629 -7.74427
LeftHand  -0.0748586 4.57932 8.26754
RightShoulder  2.38335 4.70243 23.6742
RightArm  -34.6258 27.3898 26.6505
RightForeArm  59.6691 -4.88125 -1.19183
RightHand  -0.841952 -3.30472 -45.2328
LeftUpLeg  -16.0293 -1.8391 2.82822
LeftLeg  19.1791 7.11633 3.65754
LeftFoot  -8.50554 0.145028 -3.7979
LeftToes  -6.11857e-011 5.00151e-011 -2.22593e-011
95
root  0.245706 39.5659 28.0898 -173.16 -1.40791 -178.606
RightUpLeg  -12.9691 0.444812 -5.27277
RightLeg  15.3176 3.99234 0.956885
RightFoot  -12.3198 0.0103248 11.0043
RightToes  5.38607e-012 1.2921e-014 -6.02303e-014
Spine  -5.95933 -1.87277 -1.72843
Spine1  10.8204 -1.9384 -0.153926
HEad  16.3487 -37.7442 -1.50035
LeftShoulder1  1.12726 -2.74073 -11.7452
LeftArm  -13.3181 -3.7382 -7.72595
LeftForeArm  11.5831 -0.71429 -7.93034
LeftHand  -0.0789463 4.52909 8.37864
RightShoulder  2.35349 4.50783 24.0507
RightArm  -35.1653 26.9294 26.8926
RightForeArm  59.3064 -4.83709 -1.51746
RightHand  -1.03198 -2.93303 -46.7821
LeftUpLeg  -15.6674 -2.1837 2.56885
LeftLeg  18.9253 7.22598 3.54272
LeftFoot  -8.55897 0.135044 -3.44638
LeftToes  -6.11857e-011 5.00151e-011 -2.22593e-011
96
root  0.082219 39.5523 28.0273 -173.392 -1.72858 -178.608
RightUpLeg  -12.7872 2.05974 -5.45642
RightLeg  15.4731 2.2153 0.338661
RightFoot  -10.7412 -0.126735 10.2036
RightToes  5.38607e-012 1.2921e-014 -6.02303e-014
Spine  -5.79967 -2.05359 -1.3719
Spine1  10.7193 -2.21453 0.107586
HEad  16.7462 -37.2956 -2.27874
LeftShoulder1  1.14582 -2.73286 -12.1125
LeftArm  -13.1589 -3.88821 -8.68823
LeftForeArm  12.4778 -0.867025 -8.04918
LeftHand  -0.0678274 4.80501 8.86939
RightShoulder  2.32556 4.39083 24.1487
RightArm  -36.1013 26.7085 27.0198
RightForeArm  59.4541 -4.73392 -2.08497
RightHand  -1.33113 -2.3626 -48.6261
LeftUpLeg  -15.5319 -3.01453 2.42368
LeftLeg  19.3245 7.73221 3.57149
LeftFoot  -8.81502 0.124657 -3.25514
LeftToes  -6.11857e-011 5.00151e-011 -2.22593e-011
